<svg xmlns="http://www.w3.org/2000/svg" width="75.194" height="72.182" viewBox="0 0 75.194 72.182"><defs><style>.a{fill:#e7feda;}.b{fill:#58e807;}.c{fill:#0b4e72;}</style></defs><g transform="translate(0 -10.255)"><path class="a" d="M90.139,64.4c0,3.418-6.215,5.78-7.24,8.856s2.579,8.763.653,11.4-8.39.963-11.062,2.921-3.107,8.576-6.215,9.633-7.209-4.133-10.627-4.133-7.582,5.158-10.658,4.164-3.542-7.706-6.215-9.633-9.073-.249-11.093-2.921,1.678-8.234.653-11.4-7.178-5.469-7.178-8.887,6.215-5.78,7.24-8.856-2.579-8.763-.715-11.435,8.39-.963,11.062-2.921,3.107-8.576,6.215-9.633,7.271,4.164,10.689,4.164,7.582-5.158,10.658-4.164,3.542,7.706,6.215,9.633,9.1.249,11.062,2.921-1.678,8.234-.653,11.4S90.139,60.982,90.139,64.4Z" transform="translate(-18.049 -18.052)"/><g transform="translate(0 10.255)"><path class="b" d="M27.792,82.437a5.748,5.748,0,0,1-1.808-.289c-3.051-.985-4.3-4.071-5.4-6.789-.444-1.094-1.184-2.924-1.678-3.281a11.529,11.529,0,0,0-3.567-.559c-2.775-.186-6.227-.416-8.188-3.011-2.014-2.663-1.128-6.056-.416-8.781.289-1.109.777-2.967.59-3.539A10.9,10.9,0,0,0,4.81,53.673C2.669,51.9,0,49.683,0,46.349c0-3.356,2.719-5.6,4.906-7.4a11.494,11.494,0,0,0,2.5-2.439,11.966,11.966,0,0,0-.6-3.57c-.724-2.831-1.547-6.044.28-8.66,1.871-2.682,5.36-2.908,8.163-3.092,1.168-.075,3.123-.2,3.611-.559.507-.367,1.243-2.184,1.681-3.269,1.094-2.7,2.334-5.764,5.372-6.8,3.092-1.056,6.016.808,8.359,2.3,1.063.677,2.666,1.7,3.331,1.7s2.3-1.025,3.368-1.7c2.439-1.541,5.2-3.288,8.244-2.309s4.3,4.068,5.394,6.786c.444,1.094,1.187,2.927,1.681,3.284a11.481,11.481,0,0,0,3.573.559c2.784.186,6.252.419,8.175,3.045,1.936,2.641,1.072,6,.379,8.7a11.371,11.371,0,0,0-.584,3.583,11.073,11.073,0,0,0,2.526,2.511c2.153,1.78,4.835,4,4.835,7.333,0,3.356-2.719,5.6-4.906,7.4a11.566,11.566,0,0,0-2.5,2.439,11.857,11.857,0,0,0,.584,3.536c.724,2.856,1.544,6.1-.367,8.716s-5.2,2.828-8.119,3.027c-1.168.078-3.123.208-3.617.572A11.711,11.711,0,0,0,54.6,75.315c-1.1,2.7-2.334,5.761-5.373,6.8-3.092,1.053-6-.8-8.328-2.281-1.05-.671-2.638-1.684-3.3-1.684-.677,0-2.3,1.025-3.368,1.7C32.285,81.073,30.132,82.437,27.792,82.437Zm0-65.965A18.859,18.859,0,0,0,26.3,19.691c-.9,2.231-1.836,4.54-3.769,5.954-1.948,1.426-4.456,1.591-6.88,1.749a11.594,11.594,0,0,0-3.561.541,22.735,22.735,0,0,0,.733,3.465c.6,2.362,1.23,4.8.469,7.079-.739,2.222-2.619,3.769-4.437,5.267-.876.721-2.5,2.066-2.647,2.651A12.557,12.557,0,0,0,8.784,48.9c1.743,1.451,3.716,3.089,4.459,5.379s.087,4.807-.491,7.023c-.292,1.119-.783,3-.59,3.549a15.452,15.452,0,0,0,3.6.472c2.386.158,4.854.323,6.786,1.715,1.948,1.4,2.893,3.738,3.806,5.994a11.753,11.753,0,0,0,1.659,3.257,25.111,25.111,0,0,0,2.9-1.7c1.976-1.249,4.214-2.666,6.693-2.666s4.689,1.414,6.643,2.657A11.262,11.262,0,0,0,47.34,76.2a18.76,18.76,0,0,0,1.495-3.222c.9-2.234,1.84-4.54,3.769-5.954,1.948-1.429,4.565-1.6,6.873-1.759,1.165-.075,3.113-.208,3.586-.562a20.468,20.468,0,0,0-.708-3.449c-.593-2.343-1.209-4.767-.454-7.029.739-2.222,2.619-3.772,4.437-5.267a12.006,12.006,0,0,0,2.635-2.607A11.756,11.756,0,0,0,66.4,43.81c-1.753-1.448-3.738-3.092-4.478-5.382s-.1-4.82.472-7.044c.292-1.125.774-3.011.584-3.561a16.811,16.811,0,0,0-3.533-.438c-2.39-.158-4.86-.323-6.8-1.718s-2.893-3.738-3.806-5.994a11.766,11.766,0,0,0-1.659-3.253,25.525,25.525,0,0,0-2.9,1.7c-1.976,1.249-4.214,2.666-6.693,2.666s-4.7-1.42-6.668-2.669A11.066,11.066,0,0,0,27.792,16.472ZM68.986,46.4h0Z" transform="translate(0 -10.255)"/><path class="c" d="M161.615,196.761a3.091,3.091,0,0,1-2.2-.91l-8.3-8.3a3.107,3.107,0,0,1,4.394-4.394l5.895,5.892,13.852-16.565a3.109,3.109,0,0,1,4.77,3.99L164,195.648a3.1,3.1,0,0,1-2.247,1.109C161.708,196.761,161.661,196.761,161.615,196.761Z" transform="translate(-128.149 -147.71)"/></g></g></svg>