<svg xmlns="http://www.w3.org/2000/svg" width="32.965" height="33.03" viewBox="0 0 32.965 33.03"><defs><style>.a{fill:#0b4e72;}</style></defs><path class="a" d="M7.727,13.2A5.479,5.479,0,0,0,13.2,18.672a1.288,1.288,0,1,1,0,2.575A8.048,8.048,0,1,1,21.248,13.2a1.288,1.288,0,0,1-2.575,0,5.473,5.473,0,1,0-10.946,0Zm1.012,11.39c-3.3-3.618-6.158-6.744-6.163-11.4a10.624,10.624,0,0,1,21.247,0,1.288,1.288,0,0,0,1.288,1.286h0A1.288,1.288,0,0,0,26.4,13.184,13.2,13.2,0,0,0,3.871,3.861,13.115,13.115,0,0,0,0,13.187a13.79,13.79,0,0,0,2.179,7.36,39.186,39.186,0,0,0,4.657,5.779,43.962,43.962,0,0,1,4.888,6.04A1.288,1.288,0,0,0,13.9,30.99a45.947,45.947,0,0,0-5.163-6.4Zm23.89.618a1.288,1.288,0,0,1-1.819.082l-.161-.147V29.4a3.631,3.631,0,0,1-3.625,3.628H19.786A3.631,3.631,0,0,1,16.161,29.4V25.2l-.1.088a1.288,1.288,0,1,1-1.738-1.9l6.646-6.077a3.633,3.633,0,0,1,4.927,0L30.159,21.2a1.288,1.288,0,0,1,.133.121l2.255,2.062a1.287,1.287,0,0,1,.081,1.819Zm-4.556-2.42-3.91-3.575a1.07,1.07,0,0,0-1.452,0l-3.975,3.633V29.4a1.053,1.053,0,0,0,1.05,1.053h7.236a1.052,1.052,0,0,0,1.05-1.053Zm0,0" transform="translate(0 0)"/></svg>