<svg xmlns="http://www.w3.org/2000/svg" width="33.03" height="30.809" viewBox="0 0 33.03 30.809"><defs><style>.a{fill:#0b4e72;}</style></defs><g transform="translate(0)"><path class="a" d="M27.847,25.091V17.218H5.182v7.873L0,28.793V48.026H33.03V28.793ZM11.741,38.175l-9.805,7V31.171Zm4.774-1.032,12.528,8.948H3.987Zm4.774,1.032,9.805-7V45.178ZM30.4,29.291l-2.55,1.821V27.469ZM25.912,19.153V32.494l-6.288,4.491-3.109-2.221-3.109,2.221L7.118,32.494V19.153ZM5.182,31.112l-2.55-1.821,2.55-1.821Z" transform="translate(0 -17.218)"/><path class="a" d="M152.716,86.074h6.663v1.935h-6.663Z" transform="translate(-142.864 -81.632)"/><path class="a" d="M152.716,154.929h13.326v1.935H152.716Z" transform="translate(-142.864 -146.045)"/><path class="a" d="M152.716,223.785h13.326v1.935H152.716Z" transform="translate(-142.864 -210.459)"/></g></svg>