<svg xmlns="http://www.w3.org/2000/svg" width="33.031" height="33.031" viewBox="0 0 33.031 33.031"><defs><style>.a{fill:#0b4e72;}</style></defs><g transform="translate(0)"><path class="a" d="M23.74,33.031a9.2,9.2,0,0,1-3.157-.564A33.667,33.667,0,0,1,8.357,24.674,33.665,33.665,0,0,1,.565,12.449,9.136,9.136,0,0,1,.1,7.958,9.369,9.369,0,0,1,4.913,1.1,9.2,9.2,0,0,1,9.317,0a1.032,1.032,0,0,1,1.009.816l1.62,7.561a1.032,1.032,0,0,1-.279.946L8.9,12.091A27.17,27.17,0,0,0,20.94,24.133l2.768-2.768a1.033,1.033,0,0,1,.946-.279l7.561,1.62a1.032,1.032,0,0,1,.816,1.009,9.2,9.2,0,0,1-1.1,4.4,9.369,9.369,0,0,1-6.858,4.815,9.181,9.181,0,0,1-1.333.1ZM8.493,2.11A7.233,7.233,0,0,0,2.5,11.744,31.308,31.308,0,0,0,21.287,30.527a7.233,7.233,0,0,0,9.635-5.988l-6.151-1.318L21.88,26.112a1.032,1.032,0,0,1-1.169.2,29.227,29.227,0,0,1-14-14,1.032,1.032,0,0,1,.2-1.169L9.811,8.26Z" transform="translate(0 0)"/><path class="a" d="M256.535,17.547a1.032,1.032,0,0,1-1.032-1.032A14.467,14.467,0,0,0,241.052,2.064a1.032,1.032,0,1,1,0-2.064,16.515,16.515,0,0,1,16.515,16.515A1.032,1.032,0,0,1,256.535,17.547Z" transform="translate(-224.536)"/><path class="a" d="M252.406,77.418a1.032,1.032,0,0,1-1.032-1.032,10.334,10.334,0,0,0-10.322-10.322,1.032,1.032,0,1,1,0-2.064,12.4,12.4,0,0,1,12.386,12.386A1.032,1.032,0,0,1,252.406,77.418Z" transform="translate(-224.536 -59.871)"/><path class="a" d="M248.277,137.29a1.032,1.032,0,0,1-1.032-1.032,6.2,6.2,0,0,0-6.193-6.193,1.032,1.032,0,1,1,0-2.064,8.267,8.267,0,0,1,8.257,8.257A1.032,1.032,0,0,1,248.277,137.29Z" transform="translate(-224.536 -119.743)"/></g></svg>