<svg xmlns="http://www.w3.org/2000/svg" width="33.923" height="25.694" viewBox="0 0 33.923 25.694"><defs><style>.a{fill:#59595c;}</style></defs><path class="a" d="M200.478,110.795l-7.494-4.1a1.376,1.376,0,0,0-2.037,1.208v8.131a1.374,1.374,0,0,0,2.029,1.212l7.495-4.03a1.376,1.376,0,0,0,.009-2.42Zm-7.544,4.215v-6.077l5.6,3.065Zm0,0" transform="translate(-178.295 -99.465)"/><path class="a" d="M33.672,6.064l0-.016a7.758,7.758,0,0,0-1.5-3.937A5.52,5.52,0,0,0,28.52.4l-.168-.02L28.292.371C23.807.045,17.034,0,16.966,0h-.012c-.068,0-6.841.045-11.366.371l-.06.006L5.37.4A5.381,5.381,0,0,0,1.736,2.164,8.13,8.13,0,0,0,.253,6.029l0,.035C.239,6.178,0,8.883,0,11.6v2.538c0,2.715.239,5.42.249,5.534l0,.017a7.682,7.682,0,0,0,1.49,3.889,5.633,5.633,0,0,0,3.778,1.69c.138.016.257.029.338.043l.078.011c2.589.246,10.708.368,11.052.373h.021c.068,0,6.84-.045,11.325-.371l.059-.006c.057-.008.12-.014.19-.021a5.257,5.257,0,0,0,3.6-1.724A8.129,8.129,0,0,0,33.669,19.7l0-.035c.01-.114.25-2.818.25-5.534V11.6c0-2.715-.24-5.42-.25-5.534Zm-1.738,8.072c0,2.513-.219,5.1-.24,5.339a6.311,6.311,0,0,1-.975,2.754,3.269,3.269,0,0,1-2.346,1.089l-.212.024c-4.338.314-10.855.362-11.155.364-.337,0-8.337-.127-10.847-.361-.129-.021-.268-.037-.414-.054A3.717,3.717,0,0,1,3.2,22.229l-.018-.02a5.726,5.726,0,0,1-.956-2.726c-.016-.18-.241-2.8-.241-5.347V11.6c0-2.51.219-5.1.24-5.338A6.183,6.183,0,0,1,3.2,3.5,3.43,3.43,0,0,1,5.6,2.371l.162-.019c4.4-.315,10.965-.362,11.2-.364s6.8.049,11.159.364l.175.021a3.56,3.56,0,0,1,2.435,1.1l.008.009a5.819,5.819,0,0,1,.956,2.766c.015.17.241,2.794.241,5.348Zm0,0" transform="translate(0.001 0)"/></svg>