<svg xmlns="http://www.w3.org/2000/svg" width="26.64" height="20.525" viewBox="0 0 26.64 20.525"><defs><style>.a{fill:#0b4e72;}</style></defs><g transform="translate(0 0)"><path class="a" d="M28.2,13.22a.444.444,0,0,0-.444.444V29.648H25.341a37.768,37.768,0,0,0-8.486.966.884.884,0,0,1-.936-.37,10.093,10.093,0,0,1,5.266-1.485H26.42a.444.444,0,0,0,.444-.444V25.208a.444.444,0,0,0-.888,0v2.664h-4.79A10.979,10.979,0,0,0,15.764,29.3V17.216a.444.444,0,0,0-.888,0V29.3a10.977,10.977,0,0,0-5.422-1.426H4.664V11.888H11.5a3.377,3.377,0,0,1,3.374,3.377.444.444,0,0,0,.888,0,3.377,3.377,0,0,1,3.374-3.377h6.837V23.432a.444.444,0,0,0,.888,0V11.444A.444.444,0,0,0,26.42,11H19.138a4.268,4.268,0,0,0-3.818,2.367A4.268,4.268,0,0,0,11.5,11H4.22a.444.444,0,0,0-.444.444V28.316a.444.444,0,0,0,.444.444H9.454a10.091,10.091,0,0,1,5.265,1.484.888.888,0,0,1-.93.371,37.77,37.77,0,0,0-8.49-.967H2.888V13.664a.444.444,0,0,0-.888,0V30.092a.444.444,0,0,0,.444.444H5.3a36.891,36.891,0,0,1,8.284.943,1.767,1.767,0,0,0,1.737-.562,1.766,1.766,0,0,0,1.732.563,36.916,36.916,0,0,1,8.289-.944H28.2a.444.444,0,0,0,.444-.444V13.664A.444.444,0,0,0,28.2,13.22Z" transform="translate(-2 -11)"/><path class="a" d="M18.869,18.716A4.253,4.253,0,0,0,16.506,18H11.444a.444.444,0,1,0,0,.888h5.062a3.364,3.364,0,0,1,1.873.567.444.444,0,1,0,.493-.739Z" transform="translate(-7.004 -14.892)"/><path class="a" d="M42.452,18H37.39a4.254,4.254,0,0,0-2.366.716.444.444,0,1,0,.493.739,3.366,3.366,0,0,1,1.873-.567h5.062a.444.444,0,1,0,0-.888Z" transform="translate(-20.252 -14.892)"/><path class="a" d="M18.869,23.716A4.253,4.253,0,0,0,16.506,23H11.444a.444.444,0,1,0,0,.888h5.062a3.364,3.364,0,0,1,1.873.567.444.444,0,1,0,.493-.739Z" transform="translate(-7.004 -17.672)"/><path class="a" d="M42.452,23H37.39a4.254,4.254,0,0,0-2.366.716.444.444,0,1,0,.493.739,3.366,3.366,0,0,1,1.873-.567h5.062a.444.444,0,1,0,0-.888Z" transform="translate(-20.252 -17.672)"/><path class="a" d="M18.869,28.716A4.253,4.253,0,0,0,16.506,28H11.444a.444.444,0,1,0,0,.888h5.062a3.364,3.364,0,0,1,1.873.567.444.444,0,1,0,.493-.739Z" transform="translate(-7.004 -20.452)"/><path class="a" d="M42.452,28H37.39a4.254,4.254,0,0,0-2.366.716.444.444,0,1,0,.493.739,3.366,3.366,0,0,1,1.873-.567h5.062a.444.444,0,1,0,0-.888Z" transform="translate(-20.252 -20.452)"/><path class="a" d="M18.869,33.716A4.253,4.253,0,0,0,16.506,33H11.444a.444.444,0,1,0,0,.888h5.062a3.364,3.364,0,0,1,1.873.567.444.444,0,1,0,.493-.739Z" transform="translate(-7.004 -23.232)"/><path class="a" d="M42.452,33H37.39a4.254,4.254,0,0,0-2.366.716.444.444,0,1,0,.493.739,3.366,3.366,0,0,1,1.873-.567h5.062a.444.444,0,1,0,0-.888Z" transform="translate(-20.252 -23.232)"/><path class="a" d="M18.869,38.716A4.253,4.253,0,0,0,16.506,38H11.444a.444.444,0,1,0,0,.888h5.062a3.364,3.364,0,0,1,1.873.567.444.444,0,1,0,.493-.739Z" transform="translate(-7.004 -26.012)"/><path class="a" d="M42.452,38H37.39a4.254,4.254,0,0,0-2.366.716.444.444,0,0,0,.493.739,3.366,3.366,0,0,1,1.873-.567h5.062a.444.444,0,1,0,0-.888Z" transform="translate(-20.252 -26.012)"/><path class="a" d="M16.506,43H11.444a.444.444,0,1,0,0,.888h5.062a3.364,3.364,0,0,1,1.873.567.444.444,0,1,0,.493-.739A4.253,4.253,0,0,0,16.506,43Z" transform="translate(-7.004 -28.792)"/><path class="a" d="M42.452,43H37.39a4.254,4.254,0,0,0-2.366.716.444.444,0,0,0,.493.739,3.366,3.366,0,0,1,1.873-.567h5.062a.444.444,0,1,0,0-.888Z" transform="translate(-20.252 -28.792)"/></g></svg>